PathFileType	4	(X/Y/Z)	C:/Users/opensim2020/Desktop/walking_exp_matlab/subject01_walking06_straight_03.trc																																																																																																																															
DataRate	CameraRate	NumFrames	NumMarkers	Units	OrigDataRate	OrigDataStartFrame	OrigNumFrames																																																																																																																											
100	100	4	43	mm	100	2259	206																																																																																																																											
Frame#	Time	LFHD			RFHD			LBHD			RBHD			C7			T10			CLAV			STRN			RBAK			LSHO			LUPA			LELB			LFRM			LWRA			LWRB			LFIN			RSHO			RUPA			RELB			RFRM			RWRA			RWRB			RFIN			LASI			RASI			LPSI			RPSI			LTHI			LKNE			LTIB			LANK			LHEE			LTOE			RTHI			RKNE			RTIB			RANK			RHEE			RTOE			*39			*40			*41			*42		
		X1	Y1	Z1	X2	Y2	Z2	X3	Y3	Z3	X4	Y4	Z4	X5	Y5	Z5	X6	Y6	Z6	X7	Y7	Z7	X8	Y8	Z8	X9	Y9	Z9	X10	Y10	Z10	X11	Y11	Z11	X12	Y12	Z12	X13	Y13	Z13	X14	Y14	Z14	X15	Y15	Z15	X16	Y16	Z16	X17	Y17	Z17	X18	Y18	Z18	X19	Y19	Z19	X20	Y20	Z20	X21	Y21	Z21	X22	Y22	Z22	X23	Y23	Z23	X24	Y24	Z24	X25	Y25	Z25	X26	Y26	Z26	X27	Y27	Z27	X28	Y28	Z28	X29	Y29	Z29	X30	Y30	Z30	X31	Y31	Z31	X32	Y32	Z32	X33	Y33	Z33	X34	Y34	Z34	X35	Y35	Z35	X36	Y36	Z36	X37	Y37	Z37	X38	Y38	Z38	X39	Y39	Z39	X40	Y40	Z40	X41	Y41	Z41	X42	Y42	Z42	X43	Y43	Z43
																																																																																																																																		
155	1.54	426.38013	1660.00916	1330.99377	465.47482	1672.11816	1437.84973	311.20337	1627.17957	1369.31128	349.67194	1639.34778	1482.66199	269.42435	1434.65149	1418.44238	231.85777	1140.07385	1432.53015	411.42886	1362.40173	1416.20081	452.27963	1208.44202	1418.20459	214.39626	1242.17297	1502.57336	349.56561	1387.3219	1256.31104	319.00565	1200.66479	1178.57434	307.40024	1049.56555	1179.42163	351.65372	943.10596	1158.19043	434.70572	832.35217	1185.45154	382.45508	824.97437	1156.20374	434.38431	756.99792	1154.07947	354.73532	1397.4812	1568.82996	298.24802	1202.27881	1678.08704	295.37411	1076.41638	1682.68811	322.90448	958.31848	1712.1554	399.32419	840.32666	1686.90259	360.73392	842.2478	1730.97229	395.94836	763.56866	1723.51892	412.60095	935.64026	1332.67371	399.39136	937.6264	1550.22864	222.70172	945.12384	1375.16687	217.46201	943.28815	1519.68982	406.21313	604.34149	1283.6875	408.41953	470.10123	1305.61621	361.95825	285.21213	1298.1377	335.9968	70.59788	1356.98511	288.48438	42.17981	1407.50146	483.27859	35.39214	1355.94324	398.10339	604.42041	1618.29321	425.23975	450.85791	1605.90796	277.74796	358.07117	1594.58911	129.28673	218.59222	1538.87988	82.91228	224.87376	1475.45813	170.54164	80.53091	1557.70874	450.81424	1705.24475	1414.88049	1973.22302	1023.42322	-3101.80688	2012.52173	1021.98108	-3140.75781	NaN	NaN	NaN
156	1.55	436.58929	1660.26233	1330.37915	475.99557	1672.10791	1437.20569	321.35355	1627.82349	1368.86621	360.10284	1639.7439	1482.23328	278.87366	1435.19141	1417.56177	241.02832	1140.64111	1431.75269	420.84109	1362.67566	1415.46716	461.37225	1208.62988	1417.1936	223.53929	1242.71619	1501.52771	359.08469	1387.72314	1255.49585	329.68359	1201.06689	1177.74988	320.04889	1049.85657	1177.59082	366.96136	944.42816	1156.36829	453.08655	836.02588	1183.42102	400.93427	827.1532	1154.57935	454.81097	761.039	1151.61633	363.97067	1397.77856	1568.20313	306.09006	1202.57922	1676.82043	302.30627	1077.03943	1681.18347	327.55176	958.71686	1711.00562	401.01624	838.73846	1686.12744	362.59613	841.88477	1730.34326	395.40802	761.7699	1722.58594	420.99091	935.97485	1331.16919	408.81195	938.3476	1548.53296	231.29926	945.55182	1375.30078	227.07294	944.48315	1519.98828	411.38431	603.88934	1283.17395	411.93204	469.60202	1305.13208	363.91794	285.17404	1297.97327	335.65891	70.7475	1356.87024	288.14645	42.52613	1407.43811	483.35669	35.32863	1355.98096	413.14462	606.64594	1617.4259	443.04825	453.50342	1605.01978	296.93597	358.26007	1593.69238	151.70633	215.62415	1538.22083	104.15338	219.50615	1475.11206	199.11261	80.41785	1558.58118	461.38843	1705.27966	1414.2478	1973.11877	1023.35846	-3101.90356	2012.45532	1022.06476	-3140.78247	NaN	NaN	NaN
157	1.56	446.79269	1660.43994	1329.88904	486.43808	1672.04346	1436.64197	331.52881	1628.4834	1368.62183	370.47705	1640.09436	1481.78943	288.3295	1435.63428	1416.82971	250.12755	1141.10364	1431.05066	430.16266	1362.89307	1414.72754	470.43961	1208.80713	1416.21021	232.65364	1243.13025	1500.53052	368.55228	1388.26013	1254.8894	340.34805	1201.55334	1176.83337	332.63388	1050.14514	1175.87524	382.49353	945.95636	1154.77759	471.34882	839.95966	1181.41638	419.28384	829.53094	1153	474.98697	765.22314	1149.22705	373.12448	1397.93115	1567.55823	313.68466	1202.85767	1675.6145	308.93054	1077.55615	1679.64185	332.14102	959.08783	1709.83704	402.91003	837.33185	1685.44592	364.53549	841.57349	1729.60022	395.1622	760.38263	1721.95325	429.63904	936.32751	1329.69604	418.05728	939.02838	1546.54602	239.88583	945.97803	1375.54456	236.53481	945.6571	1520.5874	416.59714	603.51166	1282.72815	415.25479	469.18304	1304.65088	365.84558	285.32294	1297.67151	335.82721	70.91177	1356.93652	288.23907	42.82768	1407.54553	483.39844	35.21101	1355.96216	427.9169	608.71387	1616.53625	460.56207	456.40765	1604.24988	316.15131	357.83017	1592.71826	174.39731	211.57356	1537.46936	126.04939	212.9059	1475.09204	228.68997	79.45306	1559.12378	471.96854	1705.26709	1413.7771	1973.15894	1023.34686	-3101.84253	2012.59741	1022.01959	-3140.64746	NaN	NaN	NaN
158	1.57	456.96777	1660.62085	1329.48596	496.88889	1671.92529	1436.19958	341.59784	1629.11292	1368.40198	380.84348	1640.42151	1481.53821	297.73474	1436.0697	1416.26135	259.23462	1141.62366	1430.40613	439.48486	1363.15503	1414.14709	479.60043	1209.03027	1415.32178	241.81075	1243.6095	1499.65149	377.86438	1388.77759	1254.26245	351.02866	1202.05908	1175.69983	345.17184	1050.49939	1174.36499	397.6507	947.49426	1153.11328	489.43817	844.04095	1179.45325	437.50925	832.08813	1151.45532	495.03387	769.6217	1146.98157	382.30487	1398.05896	1567.03711	321.11002	1203.0238	1674.29089	315.48065	1078.02612	1678.11401	336.60767	959.33502	1708.63062	404.66647	835.87256	1684.61707	366.43686	841.42078	1728.98853	395.15149	759.36096	1721.55603	437.50632	936.39355	1328.17249	427.55606	939.78912	1544.92273	248.4426	946.40833	1375.82275	246.33336	946.31848	1520.92554	421.52805	603.21576	1282.30322	418.46732	468.85284	1304.15198	367.08881	285.49493	1297.46216	335.98059	71.27828	1357.00537	288.39584	43.18894	1407.59558	483.59622	35.13106	1355.9093	442.0343	610.64087	1615.52881	477.36383	459.15131	1603.19946	335.30298	356.84406	1591.63782	198.09308	206.44337	1537.04736	148.72888	205.15599	1475.05188	259.03687	78.01559	1559.55042	482.52402	1705.24597	1413.41748	1973.05713	1023.86737	-3101.94678	2012.54089	1021.95941	-3140.62793	NaN	NaN	NaN
